<svg viewBox="0 0 1200 500" xmlns="http://www.w3.org/2000/svg" role="img">

  <defs>
    <linearGradient id="bg" x1="0" y1="0" x2="1" y2="1">
      <stop offset="0%" stop-color="#6b1d08" stop-opacity="0.55"/>
      <stop offset="45%" stop-color="#101b28"/>
      <stop offset="100%" stop-color="#0a121c"/>
    </linearGradient>
    <radialGradient id="glow" cx="0.72" cy="0.28" r="0.55">
      <stop offset="0%" stop-color="#f2540e" stop-opacity="0.35"/>
      <stop offset="100%" stop-color="#f2540e" stop-opacity="0"/>
    </radialGradient>
    <pattern id="grid" width="40" height="40" patternUnits="userSpaceOnUse">
      <path d="M40 0H0V40" fill="none" stroke="#ffffff" stroke-opacity="0.04"/>
    </pattern>
  </defs>
  <rect width="1200" height="500" fill="url(#bg)"/>
  <rect width="1200" height="500" fill="url(#grid)"/>
  <rect width="1200" height="500" fill="url(#glow)"/>


  <g stroke="#ff7a33" stroke-width="5" fill="none" stroke-linecap="round" stroke-linejoin="round">
    <path d="M520 190 q-10 30 10 55 q20 25 55 35 q15 5 20 -10 l10 -25 q4 -10 -6 -16 l-25 -15 q-8 -5 -14 3 l-8 10 q-15 -10 -25 -25 l10 -8 q8 -6 3 -14 l-15 -25 q-6 -10 -16 -6 z"/>
  </g>
  <g stroke="#3fa6f5" stroke-width="5" fill="none" stroke-linecap="round" stroke-linejoin="round">
    <path d="M690 200 c26 0 46 20 46 45 c0 34 -46 75 -46 75 s-46 -41 -46 -75 c0 -25 20 -45 46 -45 Z"/>
    <circle cx="690" cy="245" r="16"/>
  </g>

</svg>
