<svg viewBox="0 0 1200 500" xmlns="http://www.w3.org/2000/svg" role="img">

  <defs>
    <linearGradient id="bg" x1="0" y1="0" x2="1" y2="1">
      <stop offset="0%" stop-color="#6b1d08" stop-opacity="0.55"/>
      <stop offset="45%" stop-color="#101b28"/>
      <stop offset="100%" stop-color="#0a121c"/>
    </linearGradient>
    <radialGradient id="glow" cx="0.72" cy="0.28" r="0.55">
      <stop offset="0%" stop-color="#f2540e" stop-opacity="0.35"/>
      <stop offset="100%" stop-color="#f2540e" stop-opacity="0"/>
    </radialGradient>
    <pattern id="grid" width="40" height="40" patternUnits="userSpaceOnUse">
      <path d="M40 0H0V40" fill="none" stroke="#ffffff" stroke-opacity="0.04"/>
    </pattern>
  </defs>
  <rect width="1200" height="500" fill="url(#bg)"/>
  <rect width="1200" height="500" fill="url(#grid)"/>
  <rect width="1200" height="500" fill="url(#glow)"/>


  <g stroke="#ff7a33" stroke-width="4" fill="none" stroke-linecap="round" stroke-linejoin="round">
    <rect x="460" y="220" width="80" height="140" fill="#101b28" fill-opacity="0.6"/>
    <rect x="550" y="180" width="90" height="180" fill="#101b28" fill-opacity="0.6"/>
    <rect x="650" y="240" width="70" height="120" fill="#101b28" fill-opacity="0.6"/>
    <line x1="480" y1="245" x2="500" y2="245"/>
    <line x1="480" y1="275" x2="500" y2="275"/>
    <line x1="480" y1="305" x2="500" y2="305"/>
    <line x1="570" y1="210" x2="590" y2="210"/>
    <line x1="570" y1="240" x2="590" y2="240"/>
    <line x1="570" y1="270" x2="590" y2="270"/>
    <line x1="570" y1="300" x2="590" y2="300"/>
    <line x1="670" y1="265" x2="690" y2="265"/>
    <line x1="670" y1="295" x2="690" y2="295"/>
    <line x1="440" y1="360" x2="740" y2="360" opacity="0.3"/>
  </g>

</svg>
