<svg viewBox="0 0 800 600" xmlns="http://www.w3.org/2000/svg" role="img">

  <defs>
    <linearGradient id="bg" x1="0" y1="0" x2="1" y2="1">
      <stop offset="0%" stop-color="#123b5c" stop-opacity="0.55"/>
      <stop offset="45%" stop-color="#101b28"/>
      <stop offset="100%" stop-color="#0a121c"/>
    </linearGradient>
    <radialGradient id="glow" cx="0.6" cy="0.65" r="0.55">
      <stop offset="0%" stop-color="#1c87db" stop-opacity="0.35"/>
      <stop offset="100%" stop-color="#1c87db" stop-opacity="0"/>
    </radialGradient>
    <pattern id="grid" width="40" height="40" patternUnits="userSpaceOnUse">
      <path d="M40 0H0V40" fill="none" stroke="#ffffff" stroke-opacity="0.04"/>
    </pattern>
    
  </defs>
  <rect width="800" height="600" fill="url(#bg)"/>
  <rect width="800" height="600" fill="url(#grid)"/>
  <rect width="800" height="600" fill="url(#glow)"/>


  <g stroke="#3fa6f5" stroke-width="16" fill="none" stroke-linecap="round" stroke-linejoin="round" opacity="0.9">
    <path d="M180 460 V320 H420 V220"/>
    <path d="M420 220 H560 V340"/>
  </g>
  <g fill="#1c87db" fill-opacity="0.5">
    <circle cx="180" cy="320" r="16"/>
    <circle cx="420" cy="320" r="16"/>
    <circle cx="420" cy="220" r="16"/>
    <circle cx="560" cy="340" r="16"/>
  </g>
  <g stroke="#7bc7ff" stroke-width="4" fill="none">
    <circle cx="300" cy="320" r="26"/>
    <line x1="282" y1="320" x2="318" y2="320"/>
    <line x1="300" y1="302" x2="300" y2="338"/>
  </g>
  <g transform="translate(490,420) rotate(-35)" stroke="#7bc7ff" stroke-width="10" stroke-linecap="round" fill="none">
    <line x1="0" y1="0" x2="90" y2="0"/>
    <path d="M90 -16 a16 16 0 1 1 0 32 a16 16 0 1 1 0 -32 Z" fill="#101b28"/>
  </g>

</svg>
