<svg viewBox="0 0 800 600" xmlns="http://www.w3.org/2000/svg" role="img">

  <defs>
    <linearGradient id="bg" x1="0" y1="0" x2="1" y2="1">
      <stop offset="0%" stop-color="#6b1d08" stop-opacity="0.55"/>
      <stop offset="45%" stop-color="#101b28"/>
      <stop offset="100%" stop-color="#0a121c"/>
    </linearGradient>
    <radialGradient id="glow" cx="0.72" cy="0.28" r="0.55">
      <stop offset="0%" stop-color="#f2540e" stop-opacity="0.35"/>
      <stop offset="100%" stop-color="#f2540e" stop-opacity="0"/>
    </radialGradient>
    <pattern id="grid" width="40" height="40" patternUnits="userSpaceOnUse">
      <path d="M40 0H0V40" fill="none" stroke="#ffffff" stroke-opacity="0.04"/>
    </pattern>
    
  </defs>
  <rect width="800" height="600" fill="url(#bg)"/>
  <rect width="800" height="600" fill="url(#grid)"/>
  <rect width="800" height="600" fill="url(#glow)"/>


  <g stroke="#ff7a33" stroke-width="4" fill="none" stroke-linecap="round" stroke-linejoin="round">
    <g transform="skewX(-18)">
      <rect x="230" y="330" width="120" height="90" fill="#101b28" fill-opacity="0.7"/>
      <rect x="230" y="330" width="120" height="90"/>
      <rect x="360" y="330" width="120" height="90" fill="#101b28" fill-opacity="0.7"/>
      <rect x="360" y="330" width="120" height="90"/>
      <line x1="230" y1="360" x2="480" y2="360" opacity="0.6"/>
      <line x1="230" y1="390" x2="480" y2="390" opacity="0.6"/>
      <line x1="290" y1="330" x2="290" y2="420" opacity="0.6"/>
      <line x1="420" y1="330" x2="420" y2="420" opacity="0.6"/>
    </g>
  </g>
  <g stroke="#ffa366" fill="none" stroke-width="5" stroke-linecap="round">
    <circle cx="560" cy="200" r="36" fill="#f2540e" fill-opacity="0.25"/>
    <line x1="560" y1="140" x2="560" y2="118"/>
    <line x1="508" y1="164" x2="492" y2="148"/>
    <line x1="612" y1="164" x2="628" y2="148"/>
    <line x1="484" y1="200" x2="462" y2="200"/>
  </g>
  <g stroke="#ffa366" stroke-width="3" stroke-dasharray="4 8" opacity="0.6">
    <line x1="490" y1="230" x2="400" y2="320"/>
  </g>
  <g fill="#ff7a33">
    <path d="M300 460 l24 -46 h-14 l30 -50 l-10 44 h14 z"/>
  </g>

</svg>
