<svg viewBox="0 0 800 600" xmlns="http://www.w3.org/2000/svg" role="img">

  <defs>
    <linearGradient id="bg" x1="0" y1="0" x2="1" y2="1">
      <stop offset="0%" stop-color="#6b1d08" stop-opacity="0.5"/>
      <stop offset="45%" stop-color="#101b28"/>
      <stop offset="100%" stop-color="#0a121c"/>
    </linearGradient>
    <radialGradient id="glow" cx="0.7" cy="0.3" r="0.6">
      <stop offset="0%" stop-color="#f2540e" stop-opacity="0.3"/>
      <stop offset="100%" stop-color="#f2540e" stop-opacity="0"/>
    </radialGradient>
    <pattern id="grid" width="36" height="36" patternUnits="userSpaceOnUse">
      <path d="M36 0H0V36" fill="none" stroke="#ffffff" stroke-opacity="0.04"/>
    </pattern>
  </defs>
  <rect width="800" height="600" fill="url(#bg)"/>
  <rect width="800" height="600" fill="url(#grid)"/>
  <rect width="800" height="600" fill="url(#glow)"/>


  <g stroke="#ff7a33" stroke-width="4" fill="none" stroke-linecap="round" stroke-linejoin="round">
    <rect x="230" y="320" width="90" height="120" fill="#101b28" fill-opacity="0.6"/>
    <rect x="340" y="280" width="100" height="160" fill="#101b28" fill-opacity="0.6"/>
    <rect x="460" y="310" width="90" height="130" fill="#101b28" fill-opacity="0.6"/>
    <line x1="250" y1="345" x2="270" y2="345"/>
    <line x1="250" y1="375" x2="270" y2="375"/>
    <line x1="250" y1="405" x2="270" y2="405"/>
    <line x1="290" y1="345" x2="310" y2="345"/>
    <line x1="290" y1="375" x2="310" y2="375"/>
    <line x1="290" y1="405" x2="310" y2="405"/>
    <line x1="360" y1="305" x2="380" y2="305"/>
    <line x1="360" y1="335" x2="380" y2="335"/>
    <line x1="360" y1="365" x2="380" y2="365"/>
    <line x1="360" y1="395" x2="380" y2="395"/>
    <line x1="400" y1="305" x2="420" y2="305"/>
    <line x1="400" y1="335" x2="420" y2="335"/>
    <line x1="400" y1="365" x2="420" y2="365"/>
    <line x1="400" y1="395" x2="420" y2="395"/>
    <line x1="480" y1="335" x2="500" y2="335"/>
    <line x1="480" y1="365" x2="500" y2="365"/>
    <line x1="480" y1="395" x2="500" y2="395"/>
    <line x1="520" y1="335" x2="540" y2="335"/>
    <line x1="520" y1="365" x2="540" y2="365"/>
    <line x1="520" y1="395" x2="540" y2="395"/>
    <line x1="200" y1="440" x2="580" y2="440" opacity="0.3"/>
  </g>

</svg>
