<svg viewBox="0 0 800 600" xmlns="http://www.w3.org/2000/svg" role="img">

  <defs>
    <linearGradient id="bg" x1="0" y1="0" x2="1" y2="1">
      <stop offset="0%" stop-color="#6b1d08" stop-opacity="0.5"/>
      <stop offset="45%" stop-color="#101b28"/>
      <stop offset="100%" stop-color="#0a121c"/>
    </linearGradient>
    <radialGradient id="glow" cx="0.7" cy="0.3" r="0.6">
      <stop offset="0%" stop-color="#f2540e" stop-opacity="0.3"/>
      <stop offset="100%" stop-color="#f2540e" stop-opacity="0"/>
    </radialGradient>
    <pattern id="grid" width="36" height="36" patternUnits="userSpaceOnUse">
      <path d="M36 0H0V36" fill="none" stroke="#ffffff" stroke-opacity="0.04"/>
    </pattern>
  </defs>
  <rect width="800" height="600" fill="url(#bg)"/>
  <rect width="800" height="600" fill="url(#grid)"/>
  <rect width="800" height="600" fill="url(#glow)"/>


  <g stroke="#ff7a33" stroke-width="4" fill="none" stroke-linecap="round" stroke-linejoin="round">
    <rect x="320" y="220" width="160" height="220" fill="#101b28" fill-opacity="0.6"/>
    <line x1="345" y1="250" x2="365" y2="250"/>
    <line x1="385" y1="250" x2="405" y2="250"/>
    <line x1="425" y1="250" x2="445" y2="250"/>
    <line x1="345" y1="285" x2="365" y2="285"/>
    <line x1="385" y1="285" x2="405" y2="285"/>
    <line x1="425" y1="285" x2="445" y2="285"/>
    <line x1="345" y1="320" x2="365" y2="320"/>
    <line x1="385" y1="320" x2="405" y2="320"/>
    <line x1="425" y1="320" x2="445" y2="320"/>
    <line x1="345" y1="355" x2="365" y2="355"/>
    <line x1="385" y1="355" x2="405" y2="355"/>
    <line x1="425" y1="355" x2="445" y2="355"/>
    <rect x="380" y="390" width="40" height="50" opacity="0.6"/>
    <line x1="270" y1="440" x2="530" y2="440" opacity="0.3"/>
    <rect x="230" y="360" width="70" height="80" fill="#101b28" fill-opacity="0.5"/>
    <rect x="500" y="380" width="60" height="60" fill="#101b28" fill-opacity="0.5"/>
  </g>

</svg>
